<?xml version="1.0" standalone="no"?>
<!DOCTYPE svg PUBLIC "-//W3C//DTD SVG 20010904//EN"
 "http://www.w3.org/TR/2001/REC-SVG-20010904/DTD/svg10.dtd">
<svg version="1.0" xmlns="http://www.w3.org/2000/svg"
 width="96.000000pt" height="96.000000pt" viewBox="0 0 96.000000 96.000000"
 preserveAspectRatio="xMidYMid meet">
<metadata>
Created by potrace 1.14, written by Peter Selinger 2001-2017
</metadata>
<g transform="translate(0.000000,96.000000) scale(0.100000,-0.100000)"
fill="#000000" stroke="none">
<path d="M356 816 c-99 -52 -118 -73 -92 -99 20 -20 424 -17 436 3 12 18 12
22 2 37 -10 17 -208 113 -230 112 -9 0 -62 -24 -116 -53z"/>
<path d="M64 748 c-12 -19 -11 -478 1 -487 5 -4 197 -7 425 -7 l415 1 0 235
c1 129 -3 243 -7 253 -7 13 -22 17 -73 17 l-65 0 0 -30 c0 -32 -26 -65 -63
-79 -21 -8 -22 -14 -21 -112 2 -124 2 -122 13 -115 15 9 45 -20 38 -38 -7 -18
5 -17 -279 -18 -108 0 -202 3 -208 7 -5 3 -10 15 -10 26 0 17 16 24 43 20 8
-1 9 18 9 124 0 103 -1 105 -17 105 -25 0 -65 50 -65 81 0 29 0 29 -64 29 -41
0 -68 -5 -72 -12z"/>
<path d="M340 537 l0 -114 55 1 55 0 0 113 0 113 -55 0 -55 0 0 -113z"/>
<path d="M510 537 l0 -113 53 0 52 1 3 113 3 112 -56 0 -55 0 0 -113z"/>
<path d="M13 193 c-16 -6 -17 -37 -3 -64 23 -43 44 -45 460 -43 217 1 405 3
418 3 50 2 97 89 56 105 -19 7 -913 7 -931 -1z"/>
</g>
</svg>
